<?xml version="1.0" standalone="no"?>
<!DOCTYPE svg PUBLIC "-//W3C//DTD SVG 20010904//EN"
 "http://www.w3.org/TR/2001/REC-SVG-20010904/DTD/svg10.dtd">
<svg version="1.0" xmlns="http://www.w3.org/2000/svg"
 width="175.000000pt" height="240.000000pt" viewBox="0 0 175.000000 240.000000"
 preserveAspectRatio="xMidYMid meet">
<metadata>
Created by potrace 1.16, written by Peter Selinger 2001-2019
</metadata>
<g transform="translate(0.000000,240.000000) scale(0.100000,-0.100000)" fill="#36393F" stroke="none">
<path d="M2 1558 c4 -841 4 -843 26 -922 104 -359 411 -606 786 -632 417 -29
791 235 907 641 l23 80 4 838 3 837 -876 0 -876 0 3 -842z m1736 5 c-3 -822
-4 -829 -26 -907 -76 -271 -270 -489 -521 -585 -512 -195 -1073 115 -1166 645
-12 72 -15 219 -15 880 l0 794 865 0 866 0 -3 -827z"/>
<path d="M50 2235 l0 -115 110 0 c90 0 110 -3 110 -15 0 -11 -21 -15 -107 -17
l-108 -3 -3 -117 -3 -118 826 0 825 0 0 120 0 120 -77 0 c-53 1 -84 5 -97 15
-18 14 -10 15 77 15 l97 0 0 115 0 115 -825 0 -825 0 0 -115z m420 -10 c44
-22 49 -54 14 -84 -19 -15 -24 -26 -16 -29 35 -11 54 -59 34 -88 -16 -25 -61
-37 -149 -42 -81 -4 -93 -3 -93 12 0 9 7 16 15 16 12 0 14 18 13 100 -1 75 -5
100 -15 100 -7 0 -13 7 -13 15 0 21 169 21 210 0z m357 -11 c65 -48 30 -116
-67 -129 -49 -7 -50 -8 -50 -41 0 -24 5 -34 15 -34 8 0 15 -7 15 -15 0 -12
-14 -15 -70 -15 -56 0 -70 3 -70 15 0 8 7 15 15 15 12 0 15 18 15 100 0 82 -3
100 -15 100 -8 0 -15 7 -15 16 0 14 14 15 99 12 82 -2 105 -7 128 -24z m353
-9 c0 -31 -3 -35 -25 -35 -18 0 -25 5 -25 20 0 17 -7 20 -40 20 l-40 0 0 -40
c0 -36 3 -40 25 -40 16 0 25 -6 25 -15 0 -9 -9 -15 -25 -15 -23 0 -25 -4 -25
-45 l0 -45 40 0 c36 0 40 3 40 25 0 20 5 25 25 25 23 0 25 -4 25 -40 l0 -40
-125 0 c-104 0 -125 2 -125 15 0 8 9 15 20 15 19 0 20 7 20 99 0 90 -2 99 -20
104 -11 3 -20 10 -20 16 0 7 41 11 125 11 l125 0 0 -35z m331 8 c26 -25 20
-68 -11 -78 -26 -8 -26 -22 1 -30 11 -4 25 -17 31 -30 26 -58 -47 -95 -187
-95 -51 0 -65 3 -65 15 0 8 7 15 15 15 12 0 15 18 15 100 0 82 -3 100 -15 100
-8 0 -15 7 -15 16 0 14 14 15 105 12 91 -3 107 -6 126 -25z m-1241 -163 c0
-20 -5 -30 -15 -30 -9 0 -15 -10 -15 -26 l0 -26 109 4 c124 3 158 18 176 76 8
29 13 32 47 32 36 0 38 -2 38 -30 0 -16 -4 -30 -10 -30 -5 0 -10 -11 -10 -25
0 -25 1 -25 80 -25 79 0 80 0 80 25 0 16 -6 25 -15 25 -9 0 -15 9 -15 24 0 20
6 24 46 30 26 3 78 6 115 6 l69 0 0 -30 c0 -20 -5 -30 -15 -30 -9 0 -15 -9
-15 -25 l0 -25 140 0 140 0 0 50 0 50 -45 0 c-41 0 -45 -2 -45 -25 0 -20 -5
-25 -25 -25 -21 0 -25 5 -25 30 l0 30 115 0 115 0 0 -30 c0 -16 -4 -30 -10
-30 -5 0 -10 -11 -10 -25 0 -25 0 -25 94 -25 52 0 106 4 120 10 37 14 66 47
66 75 0 26 1 26 68 23 l67 -3 3 -108 3 -107 -813 2 -813 3 0 100 c0 55 1 103
3 108 2 4 48 7 103 7 l99 0 0 -30z"/>
<path d="M52 1283 c4 -520 5 -541 26 -618 79 -283 290 -499 567 -580 445 -130
901 131 1027 590 21 77 22 100 26 613 l3 532 -826 0 -826 0 3 -537z m1526 -50
c-4 -517 -4 -515 -72 -658 -118 -248 -363 -405 -631 -405 -111 0 -201 22 -310
75 -195 95 -334 276 -380 494 -12 58 -15 158 -15 510 0 241 3 441 7 444 3 4
321 7 705 7 l699 0 -3 -467z"/>
<path d="M200 1234 c0 -479 3 -510 70 -649 163 -340 562 -479 900 -313 68 33
102 59 171 128 73 72 94 101 132 180 74 155 77 178 77 659 l0 421 -675 0 -675
0 0 -426z m1338 -26 l-3 -443 -28 -80 c-72 -206 -209 -353 -398 -428 -305
-121 -664 16 -818 312 -76 147 -75 142 -77 639 l-1 442 664 0 664 0 -3 -442z"/>
<path d="M542 1422 c-6 -15 -13 -36 -17 -47 -8 -20 -7 -20 7 -1 15 19 17 19
54 2 36 -15 24 -15 -26 0 -11 4 -20 2 -20 -4 0 -10 167 -72 195 -72 10 0 13
-5 9 -12 -5 -7 -2 -9 8 -6 8 4 21 2 29 -3 9 -5 -3 -8 -33 -7 -27 1 -48 5 -48
9 0 4 -8 10 -17 13 -14 6 -12 2 5 -17 26 -28 28 -39 5 -30 -11 4 -14 3 -9 -5
4 -7 2 -12 -4 -12 -7 0 -9 8 -5 19 3 10 -1 24 -10 31 -8 7 -13 15 -10 19 2 4
-12 7 -30 7 -19 -1 -35 -5 -35 -11 0 -5 -4 -4 -9 3 -16 26 -22 -18 -6 -49 9
-16 12 -29 7 -29 -5 0 -30 -19 -56 -41 -44 -39 -86 -103 -86 -131 0 -7 11 10
24 38 13 27 43 67 66 87 45 38 75 51 47 19 -20 -22 -22 -42 -5 -42 6 0 2 -10
-9 -22 -30 -34 -43 -63 -43 -98 0 -20 -4 -29 -11 -24 -13 8 -3 70 17 102 8 12
10 22 5 22 -14 0 -61 -71 -61 -92 0 -23 -20 -34 -31 -17 -7 11 -9 9 -9 -8 0
-40 49 -16 51 25 1 23 3 22 8 -8 4 -25 11 -35 24 -34 23 2 23 -32 0 -45 -10
-6 -13 -11 -7 -11 22 0 36 28 29 60 -12 55 30 117 65 95 16 -10 41 15 35 35
-6 19 19 35 37 23 7 -3 8 -1 4 5 -7 11 46 29 90 30 11 0 36 8 55 16 23 11 26
14 9 10 l-25 -6 24 17 c13 10 26 14 30 9 10 -15 71 -33 88 -27 10 4 14 2 10
-4 -4 -6 1 -13 11 -15 22 -6 73 12 54 19 -7 3 -19 0 -26 -6 -10 -8 -16 -5 -24
14 -13 29 -8 30 42 10 20 -9 42 -13 48 -9 6 4 8 3 4 -4 -3 -5 0 -13 6 -16 7
-3 1 -4 -14 -1 -15 3 -30 1 -33 -5 -3 -5 1 -10 9 -10 11 0 16 -10 17 -32 2
-31 2 -31 6 -5 2 15 9 27 14 27 6 0 7 -9 4 -20 -4 -12 -1 -28 7 -37 11 -15 11
-16 -7 -10 -20 7 -20 7 -1 -8 23 -17 33 -19 41 -5 3 5 12 7 19 4 7 -3 19 2 26
11 7 8 17 15 23 15 6 0 7 -3 4 -7 -4 -3 1 -15 10 -26 12 -13 18 -36 18 -71 0
-54 8 -76 28 -76 7 0 4 5 -5 11 -24 13 -23 35 2 42 15 4 20 14 21 39 l1 33 9
-34 c6 -19 18 -35 30 -38 24 -7 25 -28 2 -43 -11 -7 -12 -10 -4 -7 24 6 34 32
26 63 -7 26 -8 27 -15 9 -7 -18 -9 -18 -19 8 -6 16 -11 32 -11 36 0 4 -14 22
-31 41 -16 19 -28 28 -25 20 2 -8 10 -32 17 -52 6 -20 8 -45 4 -55 -6 -13 -10
-5 -16 32 -6 39 -15 56 -41 78 -23 19 -28 27 -15 27 23 0 21 19 -5 47 -36 39
-4 26 47 -19 27 -24 58 -64 71 -93 13 -27 24 -44 24 -37 0 29 -42 92 -91 136
-46 41 -51 50 -41 66 8 14 9 26 2 42 -10 21 -10 21 -7 2 3 -12 0 -28 -5 -35
-8 -11 -9 -11 -5 1 3 10 -5 20 -19 27 -13 6 -22 7 -18 2 3 -5 1 -9 -3 -9 -5 0
-9 -9 -9 -19 0 -11 3 -19 6 -19 22 2 42 -3 36 -9 -10 -11 -56 -11 -50 -1 3 4
0 8 -6 8 -6 0 -8 5 -5 10 3 6 1 10 -6 10 -8 0 -6 7 5 19 13 14 14 21 5 27 -7
4 -10 3 -6 -3 4 -6 -2 -18 -13 -28 -11 -10 -17 -22 -14 -26 10 -17 -22 -8
-154 41 -73 27 -141 49 -150 47 -30 -4 -212 64 -212 79 0 8 4 14 10 14 5 0 89
-29 186 -65 98 -35 181 -62 185 -59 4 2 9 0 11 -4 1 -5 26 -16 53 -25 49 -16
50 -16 70 6 l20 21 -22 -18 c-17 -14 -26 -15 -42 -6 -24 13 -28 25 -5 16 9 -4
13 -2 8 5 -4 8 1 9 15 4 11 -3 21 -3 21 2 0 5 8 9 18 10 9 1 44 12 77 24 33
13 63 22 68 21 11 -3 8 17 -8 48 -16 31 -41 38 -73 20 -9 -6 -74 -30 -144 -55
l-127 -44 -123 45 c-68 25 -132 49 -143 53 -47 21 -53 20 -63 -7z"/>
<path d="M855 978 c-28 -160 -61 -230 -135 -279 l-41 -27 58 -12 c47 -10 66
-20 98 -54 l40 -41 40 41 c34 36 50 44 103 54 l63 13 -30 15 c-79 38 -127 129
-155 292 -9 52 -18 95 -20 97 -2 2 -11 -43 -21 -99z m81 -185 c14 -29 44 -68
66 -88 41 -35 41 -35 14 -35 -37 0 -102 -35 -122 -65 l-16 -24 -32 34 c-35 37
-72 55 -113 55 -26 0 -25 1 16 36 23 20 52 57 65 83 24 47 55 168 57 218 0 15
9 -15 20 -67 11 -52 31 -119 45 -147z"/>
</g>
</svg>
